<?xml version="1.0" encoding="UTF-8" standalone="no"?>
<svg width="70px" height="74px" viewBox="0 0 70 74" version="1.1" xmlns="http://www.w3.org/2000/svg" xmlns:xlink="http://www.w3.org/1999/xlink">
    <!-- Generator: Sketch 3.6.1 (26313) - http://www.bohemiancoding.com/sketch -->
    <title>referral</title>
    <desc>Created with Sketch.</desc>
    <defs></defs>
    <g id="Welcome" stroke="none" stroke-width="1" fill="none" fill-rule="evenodd">
        <g id="Refer-call-outs" transform="translate(0.000000, -484.000000)">
            <g id="Group-4" transform="translate(-1.000000, 94.000000)">
                <g id="referral" transform="translate(0.000000, 390.000000)">
                    <path d="M71,0 L71,25 L46,25 L71,0 Z" id="Rectangle-235" fill="#FABC3D" transform="translate(58.500000, 12.500000) scale(1, -1) rotate(-270.000000) translate(-58.500000, -12.500000) "></path>
                    <g id="Group-Copy-2" transform="translate(31.730469, 46.378906) rotate(-270.000000) translate(-31.730469, -46.378906) translate(4.230469, 15.378906)">
                        <path d="M26.2976288,5.63057167 L26.2976288,7.76996431 C26.6190443,7.75544355 26.9424077,7.74479499 27.271615,7.74479499 C27.6027704,7.74479499 27.9222379,7.76706016 28.2456013,7.78158092 L28.2456013,5.63057167 C29.3783473,5.22979856 30.1935738,4.1668786 30.1935738,2.90454013 C30.1935738,1.30047967 28.8855103,0.000387220389 27.271615,0.000387220389 C25.6577198,0.000387220389 24.3496563,1.30047967 24.3496563,2.90454013 C24.3496563,4.1668786 25.1648828,5.22979856 26.2976288,5.63057167" id="Fill-1967" fill="#46C5B7"></path>
                        <path d="M16.4612442,9.25650338 L17.3563376,10.5556278 C17.8969,10.1964809 18.4579161,9.86831159 19.0413338,9.57499215 L18.0683216,8.16260578 C18.7754356,7.19649092 18.8436146,5.86154863 18.1257867,4.81992578 C17.2141356,3.49563205 15.3957033,3.15778227 14.0642641,4.06387797 C12.7318509,4.96997368 12.3919297,6.77732485 13.3035808,8.10065052 C14.0223827,9.14227337 15.2992786,9.56240749 16.4612442,9.25650338" id="Fill-1968" fill="#46C5B7"></path>
                        <path d="M35.4948836,9.58476947 C36.0792753,9.87808891 36.6412654,10.203354 37.1818278,10.563469 L38.081791,9.25660019 C39.2437566,9.56250429 40.5216266,9.14237017 41.2394545,8.10074733 C42.1511056,6.77742165 41.8111844,4.97007049 40.4797452,4.06397478 C39.147332,3.15787907 37.3288997,3.49572886 36.4172485,4.81905454 C35.6994207,5.86164543 35.7675997,7.19658772 36.4747137,8.16270259 L35.4948836,9.58476947 Z" id="Fill-1969" fill="#46C5B7"></path>
                        <path d="M30.1935738,2.90415291 C30.1935738,4.50821337 28.8855103,5.80830582 27.271615,5.80830582 C25.6577198,5.80830582 24.3496563,4.50821337 24.3496563,2.90415291 C24.3496563,1.30009245 25.6577198,-7.10542736e-15 27.271615,-7.10542736e-15 C28.8855103,-7.10542736e-15 30.1935738,1.30009245 30.1935738,2.90415291" id="Fill-1970" fill="#FBED9A"></path>
                        <path d="M41.2391623,8.10103774 C40.3275111,9.42436342 38.5090788,9.76221321 37.1776396,8.8561175 C35.8462004,7.95002179 35.5053052,6.14267063 36.4179303,4.81934495 C37.3295815,3.49601928 39.1480138,3.15816949 40.479453,4.0642652 C41.8108922,4.9703609 42.1508134,6.77771207 41.2391623,8.10103774" id="Fill-1971" fill="#FBED9A"></path>
                        <path d="M13.3040678,8.10103774 C14.2157189,9.42436342 16.0341513,9.76221321 17.3655905,8.8561175 C18.6970297,7.95002179 19.0379249,6.14267063 18.1252997,4.81934495 C17.2136486,3.49601928 15.3952163,3.15816949 14.0637771,4.0642652 C12.7323379,4.9703609 12.3924167,6.77771207 13.3040678,8.10103774" id="Fill-1972" fill="#FBED9A"></path>
                        <path d="M45.4753207,45.9340186 C44.5110743,50.2902479 43.0500949,54.4238256 41.3358791,58.1217803 C42.3488248,58.2476269 44.8032702,58.87686 44.8032702,61.9552621 L35.0634077,61.9552621 C33.9920228,61.9552621 33.1154352,61.0840162 33.1154352,60.0191602 L33.1154352,48.4025485 C29.2194901,49.6900563 25.3235451,49.6900563 21.4276001,48.4025485 L21.4276001,60.0191602 C21.4276001,61.0840162 20.5607524,61.9552621 19.4796276,61.9552621 L9.73976512,61.9552621 C9.73976512,58.87686 12.1942105,58.2476269 13.2071562,58.1217803 C10.0904002,51.3841455 7.79179261,43.1944343 7.79179261,34.8498349 C7.79179261,18.2768023 14.6096964,7.74440776 27.2715176,7.74440776 C36.5146472,7.74440776 42.6507606,13.3591034 45.2707836,22.8460029 C46.2545097,26.3406669 46.7512427,30.3774395 46.7512427,34.8498349 C46.7512427,38.6155532 46.2837293,42.35223 45.4753207,45.9340186" id="Fill-1973" fill="#19BC9C"></path>
                        <path d="M52.3615009,47.9766061 C51.0660992,48.7704079 49.4298023,48.7510469 48.1636201,47.918523 C47.2188535,47.2989704 46.3130463,46.6116542 45.4754181,45.9340186 C46.2838267,42.35223 46.7513401,38.6155532 46.7513401,34.8498349 C46.7513401,30.3774395 46.2546071,26.3406669 45.270881,22.8460029 C48.1830999,26.3019449 52.8387541,33.3590364 54.1731153,44.2205683 C54.3581727,45.7113668 53.6471627,47.1828043 52.3615009,47.9766061" id="Fill-1974" fill="#19BC9C"></path>
                        <path d="M2.1817292,47.9766061 C3.47713092,48.7704079 5.11342782,48.7510469 6.37960995,47.918523 C7.32437661,47.2989704 8.23018382,46.6116542 9.067812,45.9340186 C8.25940341,42.35223 7.79189001,38.6155532 7.79189001,34.8498349 C7.79189001,30.3774395 8.288623,26.3406669 9.27234911,22.8460029 C6.36013022,26.3019449 1.70447594,33.3590364 0.370114776,44.2205683 C0.185057388,45.7113668 0.896067351,47.1828043 2.1817292,47.9766061" id="Fill-1975" fill="#19BC9C"></path>
                        <path d="M7.79189001,34.8498349 C7.79189001,43.1944343 10.0904976,51.3841455 13.2072536,58.1217803 C12.1943079,58.2476269 9.73986251,58.87686 9.73986251,61.9552621 L19.479725,61.9552621 C20.5608498,61.9552621 21.4276975,61.0840162 21.4276975,60.0191602 L21.4276975,48.4025485 C23.37567,49.0463024 25.3236425,49.3686634 27.271615,49.3686634 L27.271615,7.74440776 C14.6097938,7.74440776 7.79189001,18.2768023 7.79189001,34.8498349" id="Fill-1976" fill="#19BC9C"></path>
                        <path d="M35.0635051,23.2332233 C35.0635051,27.5100725 31.5746863,30.9776311 27.271615,30.9776311 C22.9685438,30.9776311 19.479725,27.5100725 19.479725,23.2332233 C19.479725,18.9563741 22.9685438,15.4888155 27.271615,15.4888155 C31.5746863,15.4888155 35.0635051,18.9563741 35.0635051,23.2332233" id="Fill-1977" fill="#F0F1F1"></path>
                        <path d="M29.7065807,22.2651723 C28.9001201,22.2651723 28.2456013,21.6146421 28.2456013,20.8130959 C28.2456013,20.3493995 28.4676702,19.94185 28.8075914,19.675636 C28.336182,19.4742814 27.8180213,19.3610194 27.271615,19.3610194 C25.1200794,19.3610194 23.37567,21.0947987 23.37567,23.2332233 C23.37567,25.3716479 25.1200794,27.1054272 27.271615,27.1054272 C29.4231507,27.1054272 31.16756,25.3716479 31.16756,23.2332233 C31.16756,22.6901467 31.0536037,22.1751436 30.8510145,21.7066069 C30.5831683,22.0444567 30.1731201,22.2651723 29.7065807,22.2651723" id="Fill-1978" fill="#3E3E3F"></path>
                    </g>
                </g>
            </g>
        </g>
    </g>
</svg>