<?xml version="1.0" encoding="UTF-8" standalone="no"?>
<svg width="674px" height="400px" viewBox="0 0 674 400" version="1.1" xmlns="http://www.w3.org/2000/svg" xmlns:xlink="http://www.w3.org/1999/xlink">
    <!-- Generator: Sketch 3.6.1 (26313) - http://www.bohemiancoding.com/sketch -->
    <title>referral-bg</title>
    <desc>Created with Sketch.</desc>
    <defs></defs>
    <g id="Welcome" stroke="none" stroke-width="1" fill="none" fill-rule="evenodd">
        <g id="Refer-call-outs" transform="translate(-20.000000, -94.000000)">
            <g id="Group-4" transform="translate(-1.000000, 94.000000)">
                <g id="Group-3" transform="translate(21.000000, 0.000000)">
                    <g id="referral-bg" transform="translate(-75.000000, -40.000000)">
                        <g id="Group-2" transform="translate(631.838850, 60.729539) rotate(-320.000000) translate(-631.838850, -60.729539) translate(583.838850, 21.729539)">
                            <path d="M75.7757685,1.13686838e-12 L-1.87583282e-12,34.287035 L20.2242315,78 L96,43.712965 L75.7757685,1.13686838e-12 Z" id="Fill-4592" fill="#F5A623"></path>
                            <path d="M31.1417778,69 C28.7975556,63.773413 22.6888889,62.481355 17.5384444,64.8602334 L9,45.9160262 C14.1504444,43.5371477 16.4262222,37.3381725 14.0648889,32.1115855 L63.8582222,9 C66.2024444,14.226587 72.3111111,16.518645 77.4615556,14.1397666 L86,33.0839738 C80.8495556,35.4802163 78.5737778,41.6618275 80.9351111,46.8884145 L31.1417778,69 Z" id="Fill-4593" fill="#FABC3D"></path>
                            <circle id="Oval-152" fill="#F5A623" cx="48" cy="39" r="14"></circle>
                            <path d="M50.9645151,42.3231771 L49.7062777,39.8014408 C50.9462798,39.6845391 51.4933396,39.951743 51.7851048,40.5529516 C52.1133406,41.204261 51.8398107,41.8054697 50.9645151,42.3231771 M44.2174448,36.6617956 C43.9256796,36.0772872 44.1262681,35.4593783 45.0197991,34.9249706 L46.2415659,37.3966062 C44.9650931,37.4801074 44.4909746,37.2129035 44.2174448,36.6617956 M54.6115802,39.1835319 C53.6086373,37.1461026 51.7486341,36.5615942 48.3386283,37.0793016 L46.9709789,34.3070617 C47.5727446,34.2235605 48.2292163,34.2068602 48.9221587,34.2402607 C49.1956886,34.256961 49.1956886,34.2068602 49.4327478,34.1066588 C50.0709842,33.8394549 49.9980429,33.2382463 49.9980429,32.6203374 L49.9980429,32.6036371 C49.9980429,32.453335 48.2474517,32.0692294 47.4086267,31.5348218 C46.806861,31.6016227 46.3418602,31.7018242 45.7218591,31.8688266 L45.6616825,31.618323 C45.4082115,31.0839153 44.7663281,30.8501119 44.201033,31.1006155 C43.6175026,31.3344189 43.3786198,31.9523278 43.6539732,32.4700352 L43.7706793,32.7038386 C41.3818517,33.9897571 40.3843794,36.0271865 41.3873223,38.0312153 C42.4613829,40.2022466 44.3797392,40.6197526 47.6073917,40.1187454 L49.0479824,43.0245872 C48.0450395,43.2249901 47.0803908,43.2082899 46.0045066,43.0579877 C45.6945061,43.0245872 45.3662703,43.0412875 45.1109757,43.1581892 C44.3268567,43.4754937 43.9986209,44.260405 44.345092,44.9618151 C44.6003866,45.4628223 45.0380344,45.713326 45.5668588,45.7801269 C47.0803908,45.9471293 48.6303935,45.8302276 50.1256902,45.4127216 L50.6180439,46.3980358 C50.8733385,46.9157433 51.5480455,47.1495466 52.1315759,46.899043 C52.696871,46.6652397 52.9521656,46.064031 52.6786357,45.5296233 L52.2045172,44.5610094 C54.5751095,43.2583906 55.6327584,41.2209613 54.6115802,39.1835319" id="Fill-4604" fill="#FABC3D"></path>
                        </g>
                        <g id="Group-2" transform="translate(451.838850, 360.729539) rotate(-320.000000) translate(-451.838850, -360.729539) translate(403.838850, 321.729539)">
                            <path d="M75.7757685,1.16529009e-12 L-1.87583282e-12,34.287035 L20.2242315,78 L96,43.712965 L75.7757685,1.16529009e-12 Z" id="Fill-4592" fill="#F5A623"></path>
                            <path d="M31.1417778,69 C28.7975556,63.773413 22.6888889,62.481355 17.5384444,64.8602334 L9,45.9160262 C14.1504444,43.5371477 16.4262222,37.3381725 14.0648889,32.1115855 L63.8582222,9 C66.2024444,14.226587 72.3111111,16.518645 77.4615556,14.1397666 L86,33.0839738 C80.8495556,35.4802163 78.5737778,41.6618275 80.9351111,46.8884145 L31.1417778,69 Z" id="Fill-4593" fill="#FABC3D"></path>
                            <circle id="Oval-152" fill="#F5A623" cx="48" cy="39" r="14"></circle>
                            <path d="M50.9645151,42.3231771 L49.7062777,39.8014408 C50.9462798,39.6845391 51.4933396,39.951743 51.7851048,40.5529516 C52.1133406,41.204261 51.8398107,41.8054697 50.9645151,42.3231771 M44.2174448,36.6617956 C43.9256796,36.0772872 44.1262681,35.4593783 45.0197991,34.9249706 L46.2415659,37.3966062 C44.9650931,37.4801074 44.4909746,37.2129035 44.2174448,36.6617956 M54.6115802,39.1835319 C53.6086373,37.1461026 51.7486341,36.5615942 48.3386283,37.0793016 L46.9709789,34.3070617 C47.5727446,34.2235605 48.2292163,34.2068602 48.9221587,34.2402607 C49.1956886,34.256961 49.1956886,34.2068602 49.4327478,34.1066588 C50.0709842,33.8394549 49.9980429,33.2382463 49.9980429,32.6203374 L49.9980429,32.6036371 C49.9980429,32.453335 48.2474517,32.0692294 47.4086267,31.5348218 C46.806861,31.6016227 46.3418602,31.7018242 45.7218591,31.8688266 L45.6616825,31.618323 C45.4082115,31.0839153 44.7663281,30.8501119 44.201033,31.1006155 C43.6175026,31.3344189 43.3786198,31.9523278 43.6539732,32.4700352 L43.7706793,32.7038386 C41.3818517,33.9897571 40.3843794,36.0271865 41.3873223,38.0312153 C42.4613829,40.2022466 44.3797392,40.6197526 47.6073917,40.1187454 L49.0479824,43.0245872 C48.0450395,43.2249901 47.0803908,43.2082899 46.0045066,43.0579877 C45.6945061,43.0245872 45.3662703,43.0412875 45.1109757,43.1581892 C44.3268567,43.4754937 43.9986209,44.260405 44.345092,44.9618151 C44.6003866,45.4628223 45.0380344,45.713326 45.5668588,45.7801269 C47.0803908,45.9471293 48.6303935,45.8302276 50.1256902,45.4127216 L50.6180439,46.3980358 C50.8733385,46.9157433 51.5480455,47.1495466 52.1315759,46.899043 C52.696871,46.6652397 52.9521656,46.064031 52.6786357,45.5296233 L52.2045172,44.5610094 C54.5751095,43.2583906 55.6327584,41.2209613 54.6115802,39.1835319" id="Fill-4604" fill="#FABC3D"></path>
                        </g>
                        <g id="Group-2" transform="translate(61.838850, 170.729539) rotate(-320.000000) translate(-61.838850, -170.729539) translate(13.838850, 131.729539)">
                            <path d="M75.7757685,1.10844667e-12 L-1.91135996e-12,34.287035 L20.2242315,78 L96,43.712965 L75.7757685,1.10844667e-12 Z" id="Fill-4592" fill="#F5A623"></path>
                            <path d="M31.1417778,69 C28.7975556,63.773413 22.6888889,62.481355 17.5384444,64.8602334 L9,45.9160262 C14.1504444,43.5371477 16.4262222,37.3381725 14.0648889,32.1115855 L63.8582222,9 C66.2024444,14.226587 72.3111111,16.518645 77.4615556,14.1397666 L86,33.0839738 C80.8495556,35.4802163 78.5737778,41.6618275 80.9351111,46.8884145 L31.1417778,69 Z" id="Fill-4593" fill="#FABC3D"></path>
                            <circle id="Oval-152" fill="#F5A623" cx="48" cy="39" r="14"></circle>
                        </g>
                        <g id="Group-2" transform="translate(711.500000, 291.000000) rotate(-320.000000) translate(-711.500000, -291.000000) translate(673.000000, 260.000000)">
                            <path d="M60.778481,3.51718654e-13 L-4.97379915e-13,27.2537971 L16.221519,62 L77,34.7462029 L60.778481,3.51718654e-13 Z" id="Fill-4592" fill="#F5A623"></path>
                            <path d="M24.9783009,54.8461538 C23.0980394,50.6916873 18.1983796,49.6646668 14.067294,51.5555702 L7.21875,36.4973541 C11.3498356,34.6064508 13.1751991,29.6790602 11.281213,25.5245936 L51.2196157,7.15384615 C53.0998773,11.3083127 57.999537,13.130205 62.1306227,11.2393016 L68.9791667,26.2975176 C64.848081,28.2022232 63.0227176,33.1158116 64.9167037,37.2702782 L24.9783009,54.8461538 Z" id="Fill-4593" fill="#FABC3D"></path>
                            <ellipse id="Oval-152" fill="#F5A623" cx="38.5" cy="31" rx="11.2291667" ry="11.1282051"></ellipse>
                            <path d="M40.8777882,33.6414998 L39.8685769,31.6370427 C40.8631619,31.5441208 41.3019494,31.7565136 41.5359694,32.2343975 C41.799242,32.7521049 41.5798482,33.2299887 40.8777882,33.6414998 M35.4660755,29.1414273 C35.2320555,28.676818 35.3929442,28.1856597 36.1096305,27.760874 L37.0895893,29.7255075 C36.0657518,29.7918802 35.6854692,29.5794874 35.4660755,29.1414273 M43.8030383,31.1458843 C42.9985945,29.5263892 41.5067169,29.06178 38.7716081,29.473291 L37.6746393,27.2697157 C38.1573056,27.2033429 38.6838506,27.1900684 39.2396481,27.2166175 C39.4590419,27.229892 39.4590419,27.1900684 39.6491831,27.1104211 C40.1611019,26.8980283 40.1025969,26.4201445 40.1025969,25.9289861 L40.1025969,25.9157116 C40.1025969,25.7962406 38.6984768,25.490926 38.0256693,25.0661404 C37.5430031,25.1192386 37.1700337,25.1988859 36.6727412,25.3316314 L36.6244745,25.1325131 C36.4211696,24.7077275 35.9063256,24.5218838 35.4529119,24.7210021 C34.9848718,24.9068458 34.793268,25.3980041 35.0141244,25.8095152 L35.1077324,25.9953589 C33.1916935,27.0174992 32.3916376,28.6369944 33.1960814,30.2299404 C34.0575676,31.9556319 35.5962491,32.2874957 38.1850955,31.8892591 L39.3405692,34.1990309 C38.5361255,34.3583255 37.7623968,34.3450509 36.899448,34.22558 C36.6508018,34.1990309 36.3875293,34.2123054 36.1827618,34.3052273 C35.553833,34.5574437 35.2905605,35.1813476 35.5684592,35.7388787 C35.7732268,36.1371152 36.1242568,36.3362335 36.548418,36.3893317 C37.7623968,36.5220772 39.0056281,36.4291553 40.2049806,36.0972916 L40.5998894,36.88049 C40.8046569,37.2920011 41.3458282,37.4778448 41.8138682,37.2787265 C42.267282,37.0928828 42.4720495,36.614999 42.2526557,36.1902134 L41.8723732,35.4202895 C43.7737858,34.3848746 44.6221083,32.7653795 43.8030383,31.1458843" id="Fill-4604" fill="#FABC3D"></path>
                        </g>
                        <g id="Group-2" transform="translate(141.500000, 358.000000) rotate(-320.000000) translate(-141.500000, -358.000000) translate(103.000000, 327.000000)">
                            <path d="M60.778481,1.24344979e-13 L-7.531753e-13,27.2537971 L16.221519,62 L77,34.7462029 L60.778481,1.24344979e-13 Z" id="Fill-4592" fill="#F5A623"></path>
                            <path d="M24.9783009,54.8461538 C23.0980394,50.6916873 18.1983796,49.6646668 14.067294,51.5555702 L7.21875,36.4973541 C11.3498356,34.6064508 13.1751991,29.6790602 11.281213,25.5245936 L51.2196157,7.15384615 C53.0998773,11.3083127 57.999537,13.130205 62.1306227,11.2393016 L68.9791667,26.2975176 C64.848081,28.2022232 63.0227176,33.1158116 64.9167037,37.2702782 L24.9783009,54.8461538 Z" id="Fill-4593" fill="#FABC3D"></path>
                            <ellipse id="Oval-152" fill="#F5A623" cx="38.5" cy="31" rx="11.2291667" ry="11.1282051"></ellipse>
                            <path d="M40.8777882,33.6414998 L39.8685769,31.6370427 C40.8631619,31.5441208 41.3019494,31.7565136 41.5359694,32.2343975 C41.799242,32.7521049 41.5798482,33.2299887 40.8777882,33.6414998 M35.4660755,29.1414273 C35.2320555,28.676818 35.3929442,28.1856597 36.1096305,27.760874 L37.0895893,29.7255075 C36.0657518,29.7918802 35.6854692,29.5794874 35.4660755,29.1414273 M43.8030383,31.1458843 C42.9985945,29.5263892 41.5067169,29.06178 38.7716081,29.473291 L37.6746393,27.2697157 C38.1573056,27.2033429 38.6838506,27.1900684 39.2396481,27.2166175 C39.4590419,27.229892 39.4590419,27.1900684 39.6491831,27.1104211 C40.1611019,26.8980283 40.1025969,26.4201445 40.1025969,25.9289861 L40.1025969,25.9157116 C40.1025969,25.7962406 38.6984768,25.490926 38.0256693,25.0661404 C37.5430031,25.1192386 37.1700337,25.1988859 36.6727412,25.3316314 L36.6244745,25.1325131 C36.4211696,24.7077275 35.9063256,24.5218838 35.4529119,24.7210021 C34.9848718,24.9068458 34.793268,25.3980041 35.0141244,25.8095152 L35.1077324,25.9953589 C33.1916935,27.0174992 32.3916376,28.6369944 33.1960814,30.2299404 C34.0575676,31.9556319 35.5962491,32.2874957 38.1850955,31.8892591 L39.3405692,34.1990309 C38.5361255,34.3583255 37.7623968,34.3450509 36.899448,34.22558 C36.6508018,34.1990309 36.3875293,34.2123054 36.1827618,34.3052273 C35.553833,34.5574437 35.2905605,35.1813476 35.5684592,35.7388787 C35.7732268,36.1371152 36.1242568,36.3362335 36.548418,36.3893317 C37.7623968,36.5220772 39.0056281,36.4291553 40.2049806,36.0972916 L40.5998894,36.88049 C40.8046569,37.2920011 41.3458282,37.4778448 41.8138682,37.2787265 C42.267282,37.0928828 42.4720495,36.614999 42.2526557,36.1902134 L41.8723732,35.4202895 C43.7737858,34.3848746 44.6221083,32.7653795 43.8030383,31.1458843" id="Fill-4604" fill="#FABC3D"></path>
                        </g>
                        <g id="Group-2" transform="translate(261.500000, 151.000000) rotate(-320.000000) translate(-261.500000, -151.000000) translate(223.000000, 120.000000)">
                            <path d="M60.778481,1.81188398e-13 L-7.2475359e-13,27.2537971 L16.221519,62 L77,34.7462029 L60.778481,1.81188398e-13 Z" id="Fill-4592" fill="#F5A623"></path>
                            <path d="M24.9783009,54.8461538 C23.0980394,50.6916873 18.1983796,49.6646668 14.067294,51.5555702 L7.21875,36.4973541 C11.3498356,34.6064508 13.1751991,29.6790602 11.281213,25.5245936 L51.2196157,7.15384615 C53.0998773,11.3083127 57.999537,13.130205 62.1306227,11.2393016 L68.9791667,26.2975176 C64.848081,28.2022232 63.0227176,33.1158116 64.9167037,37.2702782 L24.9783009,54.8461538 Z" id="Fill-4593" fill="#FABC3D"></path>
                            <ellipse id="Oval-152" fill="#F5A623" cx="38.5" cy="31" rx="11.2291667" ry="11.1282051"></ellipse>
                            <path d="M40.8777882,33.6414998 L39.8685769,31.6370427 C40.8631619,31.5441208 41.3019494,31.7565136 41.5359694,32.2343975 C41.799242,32.7521049 41.5798482,33.2299887 40.8777882,33.6414998 M35.4660755,29.1414273 C35.2320555,28.676818 35.3929442,28.1856597 36.1096305,27.760874 L37.0895893,29.7255075 C36.0657518,29.7918802 35.6854692,29.5794874 35.4660755,29.1414273 M43.8030383,31.1458843 C42.9985945,29.5263892 41.5067169,29.06178 38.7716081,29.473291 L37.6746393,27.2697157 C38.1573056,27.2033429 38.6838506,27.1900684 39.2396481,27.2166175 C39.4590419,27.229892 39.4590419,27.1900684 39.6491831,27.1104211 C40.1611019,26.8980283 40.1025969,26.4201445 40.1025969,25.9289861 L40.1025969,25.9157116 C40.1025969,25.7962406 38.6984768,25.490926 38.0256693,25.0661404 C37.5430031,25.1192386 37.1700337,25.1988859 36.6727412,25.3316314 L36.6244745,25.1325131 C36.4211696,24.7077275 35.9063256,24.5218838 35.4529119,24.7210021 C34.9848718,24.9068458 34.793268,25.3980041 35.0141244,25.8095152 L35.1077324,25.9953589 C33.1916935,27.0174992 32.3916376,28.6369944 33.1960814,30.2299404 C34.0575676,31.9556319 35.5962491,32.2874957 38.1850955,31.8892591 L39.3405692,34.1990309 C38.5361255,34.3583255 37.7623968,34.3450509 36.899448,34.22558 C36.6508018,34.1990309 36.3875293,34.2123054 36.1827618,34.3052273 C35.553833,34.5574437 35.2905605,35.1813476 35.5684592,35.7388787 C35.7732268,36.1371152 36.1242568,36.3362335 36.548418,36.3893317 C37.7623968,36.5220772 39.0056281,36.4291553 40.2049806,36.0972916 L40.5998894,36.88049 C40.8046569,37.2920011 41.3458282,37.4778448 41.8138682,37.2787265 C42.267282,37.0928828 42.4720495,36.614999 42.2526557,36.1902134 L41.8723732,35.4202895 C43.7737858,34.3848746 44.6221083,32.7653795 43.8030383,31.1458843" id="Fill-4604" fill="#FABC3D"></path>
                        </g>
                        <g id="Group-2" transform="translate(621.500000, 440.000000) rotate(-320.000000) translate(-621.500000, -440.000000) translate(583.000000, 409.000000)">
                            <path d="M60.778481,1.81188398e-13 L-6.11066753e-13,27.2537971 L16.221519,62 L77,34.7462029 L60.778481,1.81188398e-13 Z" id="Fill-4592" fill="#F5A623"></path>
                            <path d="M24.9783009,54.8461538 C23.0980394,50.6916873 18.1983796,49.6646668 14.067294,51.5555702 L7.21875,36.4973541 C11.3498356,34.6064508 13.1751991,29.6790602 11.281213,25.5245936 L51.2196157,7.15384615 C53.0998773,11.3083127 57.999537,13.130205 62.1306227,11.2393016 L68.9791667,26.2975176 C64.848081,28.2022232 63.0227176,33.1158116 64.9167037,37.2702782 L24.9783009,54.8461538 Z" id="Fill-4593" fill="#FABC3D"></path>
                            <ellipse id="Oval-152" fill="#F5A623" cx="38.5" cy="31" rx="11.2291667" ry="11.1282051"></ellipse>
                            <path d="M40.8777882,33.6414998 L39.8685769,31.6370427 C40.8631619,31.5441208 41.3019494,31.7565136 41.5359694,32.2343975 C41.799242,32.7521049 41.5798482,33.2299887 40.8777882,33.6414998 M35.4660755,29.1414273 C35.2320555,28.676818 35.3929442,28.1856597 36.1096305,27.760874 L37.0895893,29.7255075 C36.0657518,29.7918802 35.6854692,29.5794874 35.4660755,29.1414273 M43.8030383,31.1458843 C42.9985945,29.5263892 41.5067169,29.06178 38.7716081,29.473291 L37.6746393,27.2697157 C38.1573056,27.2033429 38.6838506,27.1900684 39.2396481,27.2166175 C39.4590419,27.229892 39.4590419,27.1900684 39.6491831,27.1104211 C40.1611019,26.8980283 40.1025969,26.4201445 40.1025969,25.9289861 L40.1025969,25.9157116 C40.1025969,25.7962406 38.6984768,25.490926 38.0256693,25.0661404 C37.5430031,25.1192386 37.1700337,25.1988859 36.6727412,25.3316314 L36.6244745,25.1325131 C36.4211696,24.7077275 35.9063256,24.5218838 35.4529119,24.7210021 C34.9848718,24.9068458 34.793268,25.3980041 35.0141244,25.8095152 L35.1077324,25.9953589 C33.1916935,27.0174992 32.3916376,28.6369944 33.1960814,30.2299404 C34.0575676,31.9556319 35.5962491,32.2874957 38.1850955,31.8892591 L39.3405692,34.1990309 C38.5361255,34.3583255 37.7623968,34.3450509 36.899448,34.22558 C36.6508018,34.1990309 36.3875293,34.2123054 36.1827618,34.3052273 C35.553833,34.5574437 35.2905605,35.1813476 35.5684592,35.7388787 C35.7732268,36.1371152 36.1242568,36.3362335 36.548418,36.3893317 C37.7623968,36.5220772 39.0056281,36.4291553 40.2049806,36.0972916 L40.5998894,36.88049 C40.8046569,37.2920011 41.3458282,37.4778448 41.8138682,37.2787265 C42.267282,37.0928828 42.4720495,36.614999 42.2526557,36.1902134 L41.8723732,35.4202895 C43.7737858,34.3848746 44.6221083,32.7653795 43.8030383,31.1458843" id="Fill-4604" fill="#FABC3D"></path>
                        </g>
                    </g>
                </g>
            </g>
        </g>
    </g>
</svg>